<?xml version="1.0" standalone="no"?>
<!DOCTYPE svg PUBLIC "-//W3C//DTD SVG 20010904//EN"
 "http://www.w3.org/TR/2001/REC-SVG-20010904/DTD/svg10.dtd">
<svg version="1.0" xmlns="http://www.w3.org/2000/svg"
 width="900.000000pt" height="900.000000pt" viewBox="0 0 900.000000 900.000000"
 preserveAspectRatio="xMidYMid meet">

<g transform="translate(0.000000,900.000000) scale(0.100000,-0.100000)"
fill="#000000" stroke="none">
<path d="M2673 6533 c-17 -12 -57 -132 -84 -251 -17 -77 -22 -130 -23 -257 0
-165 10 -243 45 -349 l20 -59 -29 -31 c-97 -101 -202 -286 -256 -447 -55 -162
-70 -266 -69 -474 4 -990 483 -1527 1476 -1656 53 -7 97 -16 97 -21 0 -4 -4
-8 -9 -8 -17 0 -103 -123 -134 -190 -16 -36 -40 -107 -53 -160 -14 -52 -28
-98 -32 -102 -17 -17 -198 -68 -279 -79 -300 -40 -530 76 -717 361 -151 229
-323 346 -526 357 -101 5 -153 -14 -158 -58 -4 -37 32 -76 136 -147 159 -109
240 -214 366 -474 65 -135 83 -164 143 -225 112 -116 241 -185 417 -225 123
-28 365 -28 513 -1 l102 19 3 -95 c2 -53 3 -211 3 -351 l0 -256 -37 -75 c-37
-76 -226 -368 -302 -469 -23 -30 -45 -59 -48 -65 -4 -7 414 -10 1247 -10
l1253 0 -30 40 c-80 105 -295 438 -327 505 l-36 75 0 570 c0 428 -3 586 -13
633 -34 164 -93 297 -169 382 -23 26 -43 50 -43 53 0 2 42 10 93 16 652 87
1076 342 1296 778 121 242 171 478 185 868 11 324 -97 652 -294 892 l-60 73
25 84 c50 174 55 376 15 573 -23 109 -67 245 -83 255 -20 13 -124 9 -205 -8
-177 -36 -399 -132 -619 -268 l-121 -76 -106 25 c-280 66 -515 89 -840 82
-273 -6 -423 -23 -660 -77 l-128 -30 -88 55 c-222 137 -413 227 -575 271 -94
26 -261 42 -282 27z m-353 -3478 c17 -21 8 -50 -17 -53 -34 -5 -63 15 -63 43
0 22 5 25 34 25 18 0 39 -7 46 -15z m143 -128 c22 -25 19 -71 -6 -75 -26 -5
-66 24 -73 53 -13 54 39 68 79 22z m131 -169 c35 -32 40 -61 17 -89 -16 -20
-22 -22 -44 -12 -37 17 -62 69 -48 99 13 30 43 31 75 2z m179 -198 c36 -29 44
-70 17 -92 -19 -15 -26 -16 -53 -5 -39 16 -71 71 -56 99 13 24 59 23 92 -2z
m254 -140 c1 0 10 -11 18 -24 33 -50 -24 -89 -90 -62 -34 15 -55 53 -40 76 12
19 48 28 80 19 16 -5 31 -9 32 -9z m561 -12 c19 -19 14 -56 -10 -72 -75 -47
-167 7 -104 61 30 25 93 32 114 11z m-285 -27 c64 -24 32 -95 -42 -95 -49 0
-73 19 -69 53 5 41 59 61 111 42z"/>
</g>
</svg>
