<?xml version="1.0" standalone="no"?>
<!DOCTYPE svg PUBLIC "-//W3C//DTD SVG 20010904//EN"
 "http://www.w3.org/TR/2001/REC-SVG-20010904/DTD/svg10.dtd">
<svg version="1.0" xmlns="http://www.w3.org/2000/svg"
 width="640.000000pt" height="640.000000pt" viewBox="0 0 640.000000 640.000000"
 preserveAspectRatio="xMidYMid meet">

<g transform="translate(0.000000,640.000000) scale(0.100000,-0.100000)"
fill="#000000" stroke="none">
<path d="M1380 6339 c-286 -27 -517 -104 -725 -239 -107 -70 -287 -251 -358
-360 -76 -119 -112 -194 -157 -329 -47 -142 -69 -270 -81 -466 -10 -172 -10
-3018 0 -3053 6 -23 8 -23 71 28 170 136 449 297 650 375 l95 36 0 887 c1 930
5 1054 46 1257 90 449 355 774 761 934 272 107 550 126 1713 118 753 -6 888
-12 1073 -47 550 -108 921 -485 1017 -1035 36 -210 40 -323 40 -1250 0 -956
-4 -1059 -46 -1270 -40 -200 -125 -398 -228 -535 -63 -84 -199 -214 -280 -269
-186 -127 -419 -204 -700 -231 -57 -5 -109 -10 -116 -10 -8 0 1 -31 27 -91 83
-194 163 -459 198 -656 l13 -73 273 0 c295 0 423 9 583 41 519 103 924 491
1045 1000 53 219 51 155 51 2114 l0 1830 -23 130 c-56 315 -180 562 -380 762
-172 172 -388 293 -629 353 -226 56 -139 53 -2068 56 -979 1 -1818 -2 -1865
-7z"/>
<path d="M2470 5100 c-292 -8 -397 -19 -524 -51 -327 -83 -536 -306 -605 -645
-34 -164 -41 -378 -41 -1192 0 -732 1 -773 18 -768 29 8 190 25 312 32 140 8
372 -9 537 -40 l122 -22 -31 41 c-303 402 -340 916 -97 1341 231 404 693 642
1153 595 313 -31 595 -178 794 -412 450 -528 365 -1320 -187 -1734 -188 -142
-375 -213 -640 -243 l-63 -7 98 -76 c184 -142 367 -329 515 -525 l70 -94 117
5 c403 19 595 71 759 205 166 135 260 318 300 585 16 110 18 205 18 1100 0
738 -3 1003 -13 1075 -32 244 -102 415 -222 543 -166 178 -363 255 -707 276
-206 13 -1350 21 -1683 11z m2073 -396 c52 -18 125 -83 153 -135 10 -20 19
-65 22 -109 6 -98 -20 -162 -90 -225 -137 -123 -343 -88 -432 74 -99 184 33
411 240 411 33 0 82 -7 107 -16z"/>
<path d="M3040 3955 c-101 -23 -176 -54 -258 -107 -409 -268 -473 -838 -132
-1184 144 -146 308 -221 510 -231 329 -17 633 175 755 476 58 141 70 348 30
496 -69 254 -285 470 -540 540 -85 23 -283 29 -365 10z"/>
</g>
</svg>
