<?xml version="1.0" standalone="no"?>
<!DOCTYPE svg PUBLIC "-//W3C//DTD SVG 20010904//EN"
 "http://www.w3.org/TR/2001/REC-SVG-20010904/DTD/svg10.dtd">
<svg version="1.0" xmlns="http://www.w3.org/2000/svg"
 width="225.000000pt" height="225.000000pt" viewBox="0 0 225.000000 225.000000"
 preserveAspectRatio="xMidYMid meet">

<g transform="translate(0.000000,225.000000) scale(0.100000,-0.100000)"
fill="#000000" stroke="none">
<path d="M0 1125 l0 -1125 1125 0 1125 0 0 1125 0 1125 -1125 0 -1125 0 0
-1125z m728 605 c136 -83 68 -291 -91 -277 -148 13 -195 196 -71 278 39 26
118 25 162 -1z m833 -387 c58 -26 109 -76 140 -139 24 -48 24 -53 27 -367 l3
-317 -130 0 -131 0 0 243 c0 133 -5 260 -10 281 -5 22 -20 51 -35 65 -21 22
-35 26 -79 26 -63 0 -98 -21 -127 -75 -17 -31 -19 -61 -19 -287 0 -145 -4
-254 -9 -258 -6 -3 -66 -2 -135 1 l-126 7 2 411 3 411 125 0 125 0 0 -51 0
-52 53 49 c32 29 72 55 100 64 61 19 164 14 223 -12z m-781 -408 l0 -415 -130
0 -130 0 0 415 0 415 130 0 130 0 0 -415z"/>
</g>
</svg>
